<svg width="79" height="95" viewBox="0 0 79 95" fill="none" xmlns="http://www.w3.org/2000/svg">
<path d="M4.532 71.0845L40.7284 42.1274C44.0895 39.542 45.77 36.8704 45.77 34.1125C45.77 32.3027 45.1667 30.7945 43.9602 29.588C42.8398 28.2953 41.2024 27.6489 39.0478 27.6489C36.5485 27.6489 34.4802 28.64 32.8427 30.6222C31.2053 32.6044 30.3004 35.276 30.128 38.6371L0.783091 35.276C1.90346 24.0724 6.34182 15.5404 14.0982 9.67999C21.8545 3.81963 31.0329 0.889443 41.6333 0.889443C46.3733 0.889443 50.8547 1.44963 55.0776 2.56999C59.3006 3.69035 63.1787 5.41399 66.7122 7.7409C70.3318 9.98163 73.1758 13.0842 75.2442 17.0485C77.3987 21.0129 78.476 25.5805 78.476 30.7514C78.476 35.4914 77.528 39.8005 75.632 43.6787C73.8222 47.4707 71.7969 50.444 69.5562 52.5985C67.3155 54.7531 64.3422 57.1231 60.6364 59.7085L47.192 69.2747H78.7346V95H4.532V71.0845Z" fill="#E9F8F9"/>
</svg>
