<svg width="81" height="98" viewBox="0 0 81 98" fill="none" xmlns="http://www.w3.org/2000/svg">
<path d="M64.9024 46.5227V47.0398C69.5562 48.5049 73.3051 51.1765 76.1491 55.0547C79.0793 58.8467 80.5444 62.9404 80.5444 67.3356C80.5444 74.144 78.6053 79.9182 74.7271 84.6582C70.8489 89.312 66.1089 92.63 60.5071 94.6122C54.9053 96.5944 48.8295 97.5855 42.2796 97.5855C32.1964 97.5855 23.2335 95.2155 15.3909 90.4755C7.63455 85.7355 2.59291 78.7116 0.266 69.404L28.9646 62.6818C29.4816 65.0949 30.7744 67.2064 32.8427 69.0162C34.9973 70.826 37.5827 71.7309 40.5991 71.7309C42.6675 71.7309 44.5204 71.2569 46.1578 70.3089C47.7953 69.2747 48.614 67.6804 48.614 65.5258C48.614 62.9404 47.4936 61.1736 45.2529 60.2256C43.0122 59.2776 39.6942 58.8036 35.2989 58.8036H26.5084V37.6029H36.3331C43.5724 37.6029 47.192 35.4053 47.192 31.01C47.192 29.2002 46.4595 27.8644 44.9944 27.0025C43.6155 26.1407 41.9349 25.7098 39.9527 25.7098C37.712 25.7098 35.6867 26.3993 33.8769 27.7782C32.1533 29.1571 31.076 31.0962 30.6451 33.5954L2.07582 27.5196C4.91982 18.2982 10.0476 11.576 17.4593 7.35308C24.9571 3.04399 33.3167 0.889443 42.5382 0.889443C46.8473 0.889443 51.0271 1.40653 55.0776 2.44072C59.2144 3.4749 63.0926 5.02617 66.7122 7.09454C70.3318 9.1629 73.262 12.0069 75.5027 15.6265C77.7435 19.2462 78.8638 23.3398 78.8638 27.9074C78.8638 32.8198 77.5711 36.8704 74.9856 40.0591C72.4002 43.1616 69.0391 45.3162 64.9024 46.5227Z" fill="#E9F8F9"/>
</svg>
