<svg width="151" height="44" viewBox="0 0 151 44" fill="none" xmlns="http://www.w3.org/2000/svg">
<path d="M39.404 17V4.256H49.79V17H47.522V6.236H41.672V17H39.404ZM51.9932 12.644C51.9932 11.312 52.4432 10.226 53.3432 9.386C54.2432 8.534 55.3592 8.108 56.6912 8.108C58.0232 8.108 59.1392 8.534 60.0392 9.386C60.9392 10.226 61.3892 11.312 61.3892 12.644C61.3892 13.988 60.9332 15.092 60.0212 15.956C59.1212 16.82 58.0112 17.252 56.6912 17.252C55.3712 17.252 54.2552 16.82 53.3432 15.956C52.4432 15.092 51.9932 13.988 51.9932 12.644ZM54.8372 10.7C54.4052 11.252 54.1892 11.9 54.1892 12.644C54.1892 13.388 54.4052 14.042 54.8372 14.606C55.2692 15.17 55.8872 15.452 56.6912 15.452C57.4952 15.452 58.1132 15.17 58.5452 14.606C58.9772 14.042 59.1932 13.388 59.1932 12.644C59.1932 11.9 58.9772 11.252 58.5452 10.7C58.1132 10.148 57.4952 9.872 56.6912 9.872C55.8872 9.872 55.2692 10.148 54.8372 10.7ZM63.4835 17V8.36H67.9475C68.4635 8.36 68.9255 8.414 69.3335 8.522C69.7535 8.63 70.1315 8.864 70.4675 9.224C70.8035 9.572 70.9715 10.034 70.9715 10.61C70.9715 11.054 70.8335 11.444 70.5575 11.78C70.2935 12.104 69.9455 12.32 69.5135 12.428V12.464C70.0535 12.548 70.4915 12.776 70.8275 13.148C71.1755 13.508 71.3495 13.976 71.3495 14.552C71.3495 15.32 71.0495 15.92 70.4495 16.352C69.8495 16.784 69.0575 17 68.0735 17H63.4835ZM65.6435 15.452H67.6775C68.6735 15.452 69.1715 15.104 69.1715 14.408C69.1715 13.712 68.6915 13.364 67.7315 13.364H65.6435V15.452ZM65.6435 11.816H67.6955C68.4875 11.816 68.8835 11.498 68.8835 10.862C68.8835 10.214 68.4335 9.89 67.5335 9.89H65.6435V11.816ZM73.4327 17V8.36H75.5927V11.618H79.2287V8.36H81.3887V17H79.2287V13.346H75.5927V17H73.4327ZM84.0156 17V8.36H86.1756V17H84.0156ZM84.1056 6.344C83.8416 6.08 83.7096 5.774 83.7096 5.426C83.7096 5.078 83.8416 4.778 84.1056 4.526C84.3696 4.262 84.6936 4.13 85.0776 4.13C85.4736 4.13 85.8036 4.256 86.0676 4.508C86.3436 4.748 86.4816 5.054 86.4816 5.426C86.4816 5.798 86.3436 6.11 86.0676 6.362C85.8036 6.602 85.4736 6.722 85.0776 6.722C84.6936 6.722 84.3696 6.596 84.1056 6.344ZM95.708 17L92 8.36H94.394L96.806 14.642H96.842L98.984 8.36H101.234L97.148 18.854C96.812 19.706 96.404 20.33 95.924 20.726C95.456 21.122 94.772 21.32 93.872 21.32C93.476 21.32 93.104 21.278 92.756 21.194L92.936 19.322C93.2 19.406 93.47 19.448 93.746 19.448C94.178 19.448 94.49 19.346 94.682 19.142C94.874 18.95 95.072 18.602 95.276 18.098L95.708 17ZM102.525 17V8.36H105.549L108.069 14.192H108.087L110.517 8.36H113.577V17H111.453V10.88H111.417L108.735 17H107.295L104.685 10.862H104.649V17H102.525ZM115.661 12.644C115.661 11.312 116.111 10.226 117.011 9.386C117.911 8.534 119.027 8.108 120.359 8.108C121.691 8.108 122.807 8.534 123.707 9.386C124.607 10.226 125.057 11.312 125.057 12.644C125.057 13.988 124.601 15.092 123.689 15.956C122.789 16.82 121.679 17.252 120.359 17.252C119.039 17.252 117.923 16.82 117.011 15.956C116.111 15.092 115.661 13.988 115.661 12.644ZM118.505 10.7C118.073 11.252 117.857 11.9 117.857 12.644C117.857 13.388 118.073 14.042 118.505 14.606C118.937 15.17 119.555 15.452 120.359 15.452C121.163 15.452 121.781 15.17 122.213 14.606C122.645 14.042 122.861 13.388 122.861 12.644C122.861 11.9 122.645 11.252 122.213 10.7C121.781 10.148 121.163 9.872 120.359 9.872C119.555 9.872 118.937 10.148 118.505 10.7ZM127.151 17V8.36H131.615C132.131 8.36 132.593 8.414 133.001 8.522C133.421 8.63 133.799 8.864 134.135 9.224C134.471 9.572 134.639 10.034 134.639 10.61C134.639 11.054 134.501 11.444 134.225 11.78C133.961 12.104 133.613 12.32 133.181 12.428V12.464C133.721 12.548 134.159 12.776 134.495 13.148C134.843 13.508 135.017 13.976 135.017 14.552C135.017 15.32 134.717 15.92 134.117 16.352C133.517 16.784 132.725 17 131.741 17H127.151ZM129.311 15.452H131.345C132.341 15.452 132.839 15.104 132.839 14.408C132.839 13.712 132.359 13.364 131.399 13.364H129.311V15.452ZM129.311 11.816H131.363C132.155 11.816 132.551 11.498 132.551 10.862C132.551 10.214 132.101 9.89 131.201 9.89H129.311V11.816ZM137.101 17V8.36H139.261V13.94H139.297L143.077 8.36H145.417V17H143.257V11.456H143.221L139.477 17H137.101ZM39.296 30.36H41.366V31.566H41.42C41.672 31.17 42.05 30.828 42.554 30.54C43.07 30.252 43.688 30.108 44.408 30.108C45.632 30.108 46.634 30.54 47.414 31.404C48.206 32.268 48.602 33.348 48.602 34.644C48.602 35.94 48.212 37.032 47.432 37.92C46.664 38.808 45.638 39.252 44.354 39.252C43.754 39.252 43.196 39.126 42.68 38.874C42.164 38.622 41.768 38.28 41.492 37.848H41.456V43.32H39.296V30.36ZM45.74 36.606C46.184 36.042 46.406 35.388 46.406 34.644C46.406 33.9 46.184 33.252 45.74 32.7C45.308 32.148 44.702 31.872 43.922 31.872C43.166 31.872 42.554 32.16 42.086 32.736C41.618 33.312 41.384 33.96 41.384 34.68C41.384 35.4 41.618 36.042 42.086 36.606C42.554 37.17 43.166 37.452 43.922 37.452C44.702 37.452 45.308 37.17 45.74 36.606ZM50.1826 34.644C50.1826 33.312 50.6326 32.226 51.5326 31.386C52.4326 30.534 53.5486 30.108 54.8806 30.108C56.2126 30.108 57.3286 30.534 58.2286 31.386C59.1286 32.226 59.5786 33.312 59.5786 34.644C59.5786 35.988 59.1226 37.092 58.2106 37.956C57.3106 38.82 56.2006 39.252 54.8806 39.252C53.5606 39.252 52.4446 38.82 51.5326 37.956C50.6326 37.092 50.1826 35.988 50.1826 34.644ZM53.0266 32.7C52.5946 33.252 52.3786 33.9 52.3786 34.644C52.3786 35.388 52.5946 36.042 53.0266 36.606C53.4586 37.17 54.0766 37.452 54.8806 37.452C55.6846 37.452 56.3026 37.17 56.7346 36.606C57.1666 36.042 57.3826 35.388 57.3826 34.644C57.3826 33.9 57.1666 33.252 56.7346 32.7C56.3026 32.148 55.6846 31.872 54.8806 31.872C54.0766 31.872 53.4586 32.148 53.0266 32.7ZM64.427 39.288C62.807 39.288 61.547 38.766 60.647 37.722L61.943 36.462C62.195 36.798 62.525 37.074 62.933 37.29C63.353 37.506 63.797 37.614 64.265 37.614C65.405 37.614 65.975 37.248 65.975 36.516C65.975 36.072 65.795 35.766 65.435 35.598C65.087 35.43 64.601 35.346 63.977 35.346H63.293V33.798H63.977C65.165 33.798 65.759 33.432 65.759 32.7C65.759 32.064 65.273 31.746 64.301 31.746C63.425 31.746 62.735 32.076 62.231 32.736L61.025 31.566C61.793 30.594 62.969 30.108 64.553 30.108C65.573 30.108 66.389 30.318 67.001 30.738C67.625 31.158 67.937 31.734 67.937 32.466C67.937 32.958 67.775 33.39 67.451 33.762C67.127 34.122 66.713 34.356 66.209 34.464V34.5C66.797 34.608 67.271 34.848 67.631 35.22C67.991 35.592 68.171 36.054 68.171 36.606C68.171 37.446 67.811 38.106 67.091 38.586C66.383 39.054 65.495 39.288 64.427 39.288ZM70.3574 39V30.36H72.5174V39H70.3574ZM70.4474 28.344C70.1834 28.08 70.0514 27.774 70.0514 27.426C70.0514 27.078 70.1834 26.778 70.4474 26.526C70.7114 26.262 71.0354 26.13 71.4194 26.13C71.8154 26.13 72.1454 26.256 72.4094 26.508C72.6854 26.748 72.8234 27.054 72.8234 27.426C72.8234 27.798 72.6854 28.11 72.4094 28.362C72.1454 28.602 71.8154 28.722 71.4194 28.722C71.0354 28.722 70.7114 28.596 70.4474 28.344ZM75.1378 39V30.36H81.2038V32.088H77.2978V39H75.1378ZM82.8546 30.36H84.9246V31.566H84.9786C85.2306 31.17 85.6086 30.828 86.1126 30.54C86.6286 30.252 87.2466 30.108 87.9666 30.108C89.1906 30.108 90.1926 30.54 90.9726 31.404C91.7646 32.268 92.1606 33.348 92.1606 34.644C92.1606 35.94 91.7706 37.032 90.9906 37.92C90.2226 38.808 89.1966 39.252 87.9126 39.252C87.3126 39.252 86.7546 39.126 86.2386 38.874C85.7226 38.622 85.3266 38.28 85.0506 37.848H85.0146V43.32H82.8546V30.36ZM89.2986 36.606C89.7426 36.042 89.9646 35.388 89.9646 34.644C89.9646 33.9 89.7426 33.252 89.2986 32.7C88.8666 32.148 88.2606 31.872 87.4806 31.872C86.7246 31.872 86.1126 32.16 85.6446 32.736C85.1766 33.312 84.9426 33.96 84.9426 34.68C84.9426 35.4 85.1766 36.042 85.6446 36.606C86.1126 37.17 86.7246 37.452 87.4806 37.452C88.2606 37.452 88.8666 37.17 89.2986 36.606ZM99.6092 39V37.902H99.5552C99.3392 38.286 98.9852 38.604 98.4932 38.856C98.0132 39.096 97.4732 39.216 96.8732 39.216C96.0452 39.216 95.2952 39 94.6232 38.568C93.9632 38.124 93.6332 37.446 93.6332 36.534C93.6332 36.042 93.7532 35.616 93.9932 35.256C94.2452 34.884 94.5572 34.596 94.9292 34.392C95.3012 34.188 95.7632 34.026 96.3152 33.906C96.8792 33.774 97.4072 33.69 97.8992 33.654C98.4032 33.618 98.9612 33.6 99.5732 33.6V33.384C99.5732 32.88 99.3872 32.49 99.0152 32.214C98.6432 31.938 98.1692 31.8 97.5932 31.8C96.6812 31.8 95.8952 32.13 95.2352 32.79L94.1192 31.476C95.1032 30.564 96.3212 30.108 97.7732 30.108C98.5172 30.108 99.1472 30.216 99.6632 30.432C100.191 30.636 100.593 30.924 100.869 31.296C101.145 31.656 101.337 32.04 101.445 32.448C101.565 32.844 101.625 33.276 101.625 33.744V39H99.6092ZM99.5732 35.364V35.058H99.0872C96.8912 35.058 95.7932 35.538 95.7932 36.498C95.7932 36.882 95.9372 37.158 96.2252 37.326C96.5252 37.494 96.8852 37.578 97.3052 37.578C98.0372 37.578 98.5952 37.386 98.9792 37.002C99.3752 36.606 99.5732 36.06 99.5732 35.364ZM104.142 39V30.36H106.302V37.236H109.524V30.36H111.684V37.236H114.888V30.36H117.048V39H104.142ZM122.163 39L118.455 30.36H120.849L123.261 36.642H123.297L125.439 30.36H127.689L123.603 40.854C123.267 41.706 122.859 42.33 122.379 42.726C121.911 43.122 121.227 43.32 120.327 43.32C119.931 43.32 119.559 43.278 119.211 43.194L119.391 41.322C119.655 41.406 119.925 41.448 120.201 41.448C120.633 41.448 120.945 41.346 121.137 41.142C121.329 40.95 121.527 40.602 121.731 40.098L122.163 39Z" fill="#CECECE"/>
<path d="M38 20.6H146.713V21.5H38V20.6ZM38 42.6H127.689V43.5H38V42.6Z" fill="#CECECE"/>
<path d="M23 42H5C2.79086 42 1 40.2091 1 38V10C1 7.79086 2.79086 6 5 6H12.0943C13.0762 6 14.0238 6.36118 14.7567 7.01474L25.6624 16.7408C26.5134 17.4998 27 18.5858 27 19.7261V38C27 40.2091 25.2091 42 23 42Z" stroke="#CECECE" stroke-width="2"/>
<line x1="4" y1="21" x2="23" y2="21" stroke="#CECECE" stroke-width="2"/>
<line x1="4" y1="26" x2="23" y2="26" stroke="#CECECE" stroke-width="2"/>
<line x1="4" y1="31" x2="23" y2="31" stroke="#CECECE" stroke-width="2"/>
</svg>
