<svg width="80" height="95" viewBox="0 0 80 95" fill="none" xmlns="http://www.w3.org/2000/svg">
<path d="M79.0273 61.2331C79.0273 67.2658 77.8638 72.566 75.5369 77.1336C73.2962 81.6151 70.2798 85.0624 66.4878 87.4755C62.6958 89.8885 58.6453 91.6553 54.3362 92.7756C50.1133 93.9822 45.6318 94.5855 40.8918 94.5855C31.1533 94.5855 22.3627 92.0431 14.5202 86.9584C6.67764 81.8736 1.93764 75.0222 0.300182 66.404L28.7402 59.1647C29.2573 61.7502 30.55 63.9478 32.6184 65.7576C34.6867 67.5675 37.0998 68.4724 39.8576 68.4724C45.5456 68.4724 48.3896 66.1455 48.3896 61.4916C48.3896 56.3207 42.9602 53.7353 32.1013 53.7353C25.3791 53.7353 17.4073 54.6402 8.18582 56.45L11.4176 0.474903H73.5978V26.0709H37.4015L36.8844 32.6638C39.6422 32.2329 41.926 32.0174 43.7358 32.0174C53.9053 32.0174 62.308 34.4736 68.944 39.386C75.6662 44.2984 79.0273 51.5807 79.0273 61.2331Z" fill="#E9F8F9"/>
</svg>
