<svg width="55" height="54" viewBox="0 0 55 54" fill="none" xmlns="http://www.w3.org/2000/svg">
<path d="M26.5491 2.79259C12.3515 3.7566 0.925493 15.4236 1.09105 28.8967C1.25661 42.3698 12.9501 52.467 27.1477 51.503C41.3452 50.539 52.7713 38.872 52.6057 25.3989C52.5177 11.9205 40.8243 1.82331 26.5491 2.79259ZM36.0698 25.6326L22.2717 33.8303C21.1152 34.5015 20.176 33.8985 20.1588 32.4919L19.8399 19.1774C19.8226 17.7709 20.7445 16.9674 21.9155 17.4806L35.9658 23.491C37.1368 24.0042 37.2262 24.9613 36.0698 25.6326Z" fill="#2D3945"/>
<path opacity="0.5" d="M28.8396 2.2202C14.4819 3.19553 2.97613 15.0257 3.14263 28.5842C3.30913 42.1426 15.086 52.3912 29.4437 51.4159C43.8014 50.4406 54.2206 38.6842 54.0541 25.1257C53.9652 11.562 43.1972 1.24488 28.8396 2.2202ZM38.4438 25.2963L24.5633 33.5061C23.4065 34.1779 22.467 33.5744 22.3721 32.1719L22.0522 18.7722C22.0349 17.3645 22.9571 16.5603 24.1285 17.074L38.3398 23.153C39.5112 23.6666 39.6006 24.6245 38.4438 25.2963Z" fill="#2D3945"/>
<path d="M52.1519 19.3929C51.1714 15.3262 46.1915 7.61865 43.0771 6.57493C40.1186 5.59446 38.5446 3.70833 37.3797 3.56582C36.2924 3.41807 31.1537 1.69962 29.3764 2.18906C27.599 2.6785 25.0351 2.26175 23.5649 2.50896C22.0957 2.82992 14.2909 4.98241 9.92216 9.1163C5.78313 13.0132 4.5681 15.0883 4.5681 15.0883C4.5681 15.0883 -3.07494 30.3673 2.83484 31.7383C4.38976 32.0758 4.16825 32.9765 4.26481 34.5199C4.29298 36.806 3.59936 37.1482 5.3976 38.3549C7.19585 39.5616 9.02431 36.9283 10.5919 38.2982C12.0821 39.6734 9.17812 43.1176 13.3889 45.0465C17.5989 46.9017 16.91 41.3391 19.8658 42.0983C22.8991 42.8523 20.3141 47.013 23.7256 47.0033C27.1381 47.0673 25.8449 42.8003 27.8628 42.9589C29.8808 43.1174 28.7568 46.2934 32.9313 45.2725C37.1058 44.2516 34.2749 41.0483 36.5135 40.2324C38.8295 39.4113 39.6569 43.636 44.0995 39.2019C48.5421 34.7677 44.2819 35.1301 45.2691 33.4395C46.1788 31.7542 47.2205 34.4882 48.4912 30.638C49.8393 26.7826 48.617 28.2677 48.4403 26.5083C48.2644 24.8227 53.1325 23.4596 52.1519 19.3929Z" fill="white"/>
<path d="M44.1295 33.1728L40.9722 33.555C40.6642 33.5923 40.4312 33.436 40.4285 33.1903L40.4212 32.5147C40.4186 32.269 40.6476 32.0567 40.9556 32.0195L44.1129 31.6372C44.4209 31.5999 44.6539 31.7562 44.6566 32.0019L44.6639 32.6776C44.5889 32.8712 44.3605 33.1448 44.1295 33.1728Z" fill="#D8271C"/>
<path d="M44.5818 23.9515C44.5034 23.9628 44.4251 23.9741 44.2678 23.9265L43.5591 23.6071C43.4018 23.5595 43.3222 23.4305 43.3216 23.3603C43.3205 23.22 43.3193 23.0797 43.3971 22.9982L45.0215 20.2355C45.1764 20.0024 45.4887 19.817 45.7249 19.9234L46.4336 20.2428C46.5909 20.2904 46.6705 20.4195 46.671 20.4896C46.6722 20.6299 46.6734 20.7703 46.5956 20.8517L44.9712 23.6144C44.973 23.8249 44.7385 23.9289 44.5818 23.9515Z" fill="#D8271C"/>
<path d="M39.9816 18.289C39.9032 18.3003 39.8248 18.3116 39.7459 18.2527L39.0368 17.9328C38.8005 17.8262 38.7197 17.5565 38.8742 17.2528L40.4995 14.486C40.6545 14.2526 40.9669 14.0669 41.2033 14.1735L41.9123 14.4933C42.0697 14.541 42.1492 14.6702 42.1498 14.7404C42.151 14.881 42.1521 15.0215 42.0743 15.1031L40.4497 17.9402C40.294 18.1033 40.1384 18.2664 39.9816 18.289Z" fill="#F6BF48"/>
<path d="M35.6212 11.7127C35.5425 11.7241 35.4637 11.7356 35.3844 11.6759C35.2263 11.6277 35.147 11.568 35.0671 11.4372L33.9418 8.75287C33.8619 8.62209 33.8608 8.47985 33.939 8.39728C34.0166 8.24359 34.0948 8.16102 34.2517 8.067L35.0371 7.66801C35.3515 7.55108 35.6671 7.57639 35.7482 7.8494L36.8734 10.5338C36.9545 10.8068 36.878 11.1027 36.5635 11.2196L35.7782 11.6186C35.7787 11.6897 35.7 11.7012 35.6212 11.7127Z" fill="#D8271C"/>
<path d="M31.3476 12.8103C31.271 12.8844 31.271 12.8844 31.1944 12.9586C31.0405 13.0427 30.9633 13.0527 30.8088 13.0726L27.6345 12.7768C27.48 12.7967 27.4015 12.6785 27.3236 12.6243C27.245 12.5061 27.2437 12.3778 27.2431 12.3137L27.4683 11.6425C27.543 11.376 27.8506 11.2078 28.083 11.2419L31.2573 11.5378C31.4118 11.5178 31.4904 11.6361 31.5683 11.6902C31.6468 11.8085 31.6481 11.9367 31.6487 12.0009L31.4235 12.6721C31.4242 12.7362 31.4248 12.8003 31.3476 12.8103Z" fill="#20BEC6"/>
<path d="M23.5025 7.78649C23.2707 7.81661 23.0377 7.71797 22.9578 7.47047L22.7962 6.7823C22.7949 6.65353 22.7936 6.52476 22.8702 6.45033C22.9462 6.31152 23.1 6.22705 23.1773 6.21701L26.2616 5.23586C26.4161 5.21578 26.5706 5.19569 26.6486 5.25003C26.8037 5.29434 26.8823 5.41307 26.8829 5.47745L27.0445 6.16561C27.1244 6.41312 26.8952 6.70079 26.6641 6.7953L23.5798 7.77645L23.5025 7.78649Z" fill="#F6BF48"/>
<path d="M33.4577 38.7187C33.3793 38.73 33.301 38.7413 33.222 38.6824L32.5129 38.3625C32.2766 38.2559 32.1959 37.9862 32.3503 37.6825L33.9756 34.9157C34.1306 34.6823 34.443 34.4965 34.6794 34.6032L35.3884 34.923C35.5458 34.9706 35.6254 35.0999 35.6259 35.1701C35.6271 35.3107 35.6283 35.4512 35.5505 35.5328L33.9252 38.2996C33.7707 38.6032 33.6145 38.6961 33.4577 38.7187Z" fill="#20BEC6"/>
<path d="M10.185 19.1675L7.38376 18.3516C7.15 18.2505 6.99248 18.0063 7.14557 17.7864L7.52672 17.071C7.67918 16.7848 7.98853 16.6766 8.22228 16.7777L11.0235 17.5936C11.2573 17.6947 11.4148 17.9389 11.2617 18.1588L10.8806 18.8742C10.7275 19.0941 10.4188 19.2686 10.185 19.1675Z" fill="#F6BF48"/>
<path d="M10.8405 33.1748C10.7623 33.1188 10.6842 33.0628 10.6835 32.9962L10.2895 32.3831C10.1326 32.2045 10.2845 31.8505 10.5158 31.6857L13.3722 29.9637C13.5266 29.876 13.6817 29.8549 13.7592 29.8444C13.9149 29.8899 13.9931 29.9459 14.0713 30.0019L14.4653 30.615C14.5441 30.7376 14.5453 30.8707 14.4684 30.9479C14.3921 31.0916 14.3152 31.1687 14.2383 31.2458L11.382 32.9678C11.2276 33.0555 11.0725 33.0766 10.9949 33.0872C10.918 33.1643 10.8405 33.1748 10.8405 33.1748Z" fill="#20BEC6"/>
<path d="M13.8914 13.934C13.813 13.9453 13.7346 13.9566 13.5773 13.9089L12.8682 13.5891C12.6319 13.4825 12.5512 13.2127 12.7056 12.9091L14.3309 10.1422C14.4859 9.90884 14.7983 9.7231 15.0346 9.82972L15.7437 10.1496C15.901 10.1972 15.9806 10.3264 15.9812 10.3967C15.9824 10.5372 15.9835 10.6778 15.9057 10.7593L14.2805 13.5262C14.2032 13.678 14.1254 13.7596 13.9686 13.7822C13.9698 13.9227 13.8914 13.934 13.8914 13.934Z" fill="#D8271C"/>
<path d="M12.308 26.4294C12.1538 26.5867 11.8428 26.6299 11.6854 26.4481L9.18056 24.9634C8.94544 24.7924 8.94297 24.5212 9.09662 24.2961L9.63596 23.6779C9.7131 23.5992 9.86799 23.5098 10.0235 23.4881C10.179 23.4665 10.3345 23.4448 10.4135 23.5697L12.9183 25.0544C12.9967 25.1114 13.0757 25.2362 13.1547 25.361C13.1559 25.4966 13.1572 25.6322 13.08 25.7109L12.5407 26.3291C12.3858 26.4186 12.3858 26.4186 12.308 26.4294Z" fill="#D8271C"/>
<path d="M15.5715 40.4902C15.3345 40.5248 15.0964 40.4161 15.0158 40.2127L14.1241 37.4018C14.0429 37.1267 14.1986 36.8171 14.5141 36.6993L15.3024 36.3691C15.4604 36.346 15.6184 36.3229 15.698 36.3831C15.8565 36.4317 15.9361 36.4918 15.9372 36.6351L16.8289 39.446C16.83 39.5893 16.8311 39.7326 16.7526 39.8157C16.6747 39.9706 16.5963 40.0538 16.4383 40.0768L15.65 40.407C15.7295 40.4672 15.6505 40.4787 15.5715 40.4902Z" fill="#D8271C"/>
<path d="M25.9163 41.8375C25.6793 41.872 25.4412 41.7633 25.3606 41.5599L24.5479 38.7375C24.4667 38.4624 24.6225 38.1528 24.9379 38.035L25.7262 37.7048C25.8842 37.6817 26.0422 37.6586 26.1217 37.7188C26.2803 37.7674 26.3604 37.8991 26.3609 37.9708L27.2526 40.7817C27.2537 40.925 27.2548 41.0683 27.1764 41.1515C27.0985 41.3063 27.0201 41.3895 26.8621 41.4125L26.0738 41.7428C25.9953 41.8259 25.9953 41.8259 25.9163 41.8375Z" fill="#F6BF48"/>
<path d="M38.6486 22.5821L20.5793 15.7932C19.0929 15.2255 17.8554 16.211 17.8726 18.0028L18.1869 34.4712C18.2041 36.263 19.4575 36.9259 20.9301 36.0602L38.6748 25.3056C40.2245 24.3604 40.135 23.1498 38.6486 22.5821Z" fill="#20BEC6"/>
<path d="M38.4934 22.2166L20.5587 15.7112C19.0834 15.1672 17.8552 16.1128 17.8724 17.8313L17.8938 19.9621L35.8272 26.33L38.4417 24.7674C40.0577 23.9216 39.9687 22.7606 38.4934 22.2166Z" fill="#2D3945"/>
</svg>
