<svg width="200" height="42" viewBox="0 0 200 42" fill="none" xmlns="http://www.w3.org/2000/svg">
<path d="M20.1839 17.2201C19.9586 17.5352 19.7333 17.8504 19.5033 17.9358C19.275 18.0977 18.9679 18.1861 18.5821 18.2008C18.1963 18.2154 17.8089 18.1535 17.4201 18.0151C17.0312 17.8766 16.5636 17.6645 16.0976 17.5289C15.63 17.3168 15.0868 17.1842 14.5436 17.0516C13.9233 16.9219 13.3044 16.8688 12.5329 16.8982C11.4526 16.9393 10.6857 17.1984 10.0761 17.6048C9.54371 18.0083 9.24741 18.6327 9.26128 19.322C9.27208 19.8581 9.4341 20.2351 9.8276 20.6033C10.2196 20.895 10.6887 21.1837 11.3121 21.4665C11.934 21.6728 12.6346 21.9527 13.4108 22.1531C14.187 22.3535 14.9632 22.5538 15.8181 22.8279C16.6731 23.1019 17.4508 23.3788 18.2301 23.7324C19.0094 24.0859 19.7131 24.519 20.3427 25.1082C20.9707 25.6208 21.4476 26.2924 21.8503 27.1201C22.2515 27.8713 22.4259 28.861 22.449 30.0097C22.4767 31.3882 22.2699 32.6224 21.7545 33.8683C21.2375 35.0376 20.5631 36.0596 19.577 36.9402C18.5909 37.8208 17.3687 38.4805 15.9135 39.0724C14.4567 39.5877 12.7638 39.882 10.8349 39.9555C9.90897 39.9907 8.90437 39.9523 7.97539 39.8344C7.0464 39.7165 6.11587 39.522 5.1838 39.2509C4.25173 38.9798 3.47244 38.6262 2.69314 38.2727C1.91385 37.9192 1.28733 37.4831 0.736429 36.9676L2.60373 33.8309C2.8275 33.4391 3.05435 33.2006 3.43552 32.9561C3.73953 32.7146 4.20094 32.6204 4.74105 32.5999C5.20401 32.5822 5.6685 32.6412 6.05891 32.8563C6.44933 33.0713 6.83975 33.2864 7.30733 33.4985C7.7749 33.7107 8.31964 33.9198 8.94154 34.1261C9.56343 34.3324 10.3366 34.3796 11.1853 34.3473C11.8026 34.3238 12.3411 34.2266 12.801 34.0558C13.2609 33.885 13.5664 33.7201 13.8704 33.4786C14.1744 33.2371 14.3241 33.0015 14.4723 32.6893C14.6204 32.3771 14.6143 32.0707 14.6081 31.7644C14.5973 31.2283 14.4338 30.7747 14.0403 30.4065C13.6468 30.0382 13.1776 29.7495 12.5557 29.5433C11.9338 29.337 11.2333 29.0571 10.4586 28.9333C9.68237 28.7329 8.90616 28.5326 8.05125 28.2585C7.2735 27.9816 6.41858 27.7076 5.63929 27.354C4.85999 27.0005 4.15478 26.4908 3.52518 25.9016C2.89558 25.3125 2.41721 24.5643 2.01292 23.6599C1.60862 22.7556 1.43273 21.6893 1.40806 20.464C1.38494 19.3152 1.59329 18.1577 2.03466 17.0679C2.47603 15.9781 3.15196 15.0327 4.06091 14.155C4.96986 13.2773 6.1149 12.6206 7.49451 12.1082C8.87411 11.5959 10.4898 11.3044 12.3416 11.2339C13.3447 11.1958 14.3493 11.2342 15.2798 11.4287C16.2088 11.5466 17.1409 11.8177 17.9186 12.0946C18.7735 12.3687 19.4757 12.7251 20.1794 13.1582C20.883 13.5913 21.5095 14.0273 21.9833 14.5457L20.1839 17.2201Z" fill="#D8271C"/>
<path d="M21.6946 11.9214L28.3712 11.6679C28.9851 11.6446 29.4486 11.7791 29.8369 11.9925C30.2268 12.2818 30.5398 12.5741 30.701 12.9482L33.7135 25.2284C33.9621 26.1314 34.2107 27.0345 34.3826 27.9405C34.5545 28.8464 34.7248 29.6764 34.8967 30.5823C35.1101 29.7378 35.3986 28.8144 35.6105 27.8938C35.8223 26.9733 36.1109 26.0499 36.3995 25.1264L39.6031 12.6102C39.7489 12.2245 39.9714 11.8358 40.3506 11.5933C40.7281 11.2748 41.1871 11.1814 41.7242 11.161L45.4079 11.0211C46.0218 10.9978 46.4853 11.1323 46.8736 11.3457C47.2635 11.635 47.5766 11.9273 47.7377 12.3014L51.2874 24.5612C51.536 25.4643 51.8614 26.3644 52.11 27.2674C52.3586 28.1705 52.6057 28.9976 52.8543 29.9006C52.9894 28.983 53.126 28.1414 53.3379 27.2208C53.5497 26.3003 53.7615 25.3798 53.9734 24.4592L56.6398 11.9634C56.7856 11.5777 57.0081 11.1891 57.3872 10.9465C57.7648 10.628 58.2237 10.5346 58.7609 10.5142L65.1305 10.2724L57.015 38.1831L50.2617 38.4395C49.878 38.4541 49.5695 38.3897 49.3347 38.1705C49.0998 37.9513 48.8635 37.6561 48.6993 37.1301L44.4313 23.5288C44.1888 22.9297 44.0231 22.3277 43.8573 21.7256C43.6916 21.1236 43.5259 20.5216 43.4369 19.9166C43.2956 20.5303 43.2312 21.1411 43.0899 21.7548C42.9487 22.3685 42.8075 22.9821 42.5895 23.5987L38.8748 37.427C38.5862 38.3505 38.0582 38.8268 37.1373 38.8617L30.9212 39.0977L21.6946 11.9214Z" fill="#D8271C"/>
<path d="M77.7439 9.18969C79.5924 9.11931 81.2931 9.36064 82.8443 9.83722C84.3955 10.3138 85.7218 11.105 86.8216 12.1344C87.9215 13.1638 88.8735 14.5049 89.5204 16.0107C90.1689 17.5929 90.5124 19.3398 90.5524 21.3278C90.5647 21.9395 90.5755 22.4747 90.5061 22.86C90.4368 23.2452 90.3659 23.554 90.2165 23.7892C90.0671 24.0245 89.9161 24.1833 89.6096 24.2714C89.38 24.3567 89.0735 24.4449 88.6884 24.4596L72.6678 25.0695C72.945 27.3546 73.7491 29.0074 74.9259 30.0339C76.1028 31.0603 77.5755 31.4634 79.424 31.393C80.4253 31.3549 81.194 31.2491 81.958 30.9139C82.6466 30.6581 83.2582 30.4053 83.7912 30.0789C84.3242 29.7525 84.8587 29.5026 85.3162 29.2557C85.7738 29.0087 86.2328 28.8382 86.772 28.8176C87.4652 28.7912 87.9319 29.003 88.3263 29.4471L90.851 32.3353C90.0237 33.3615 89.1149 34.1613 88.1259 34.8112C87.1369 35.461 86.1449 35.9579 85.0742 36.3812C84.0036 36.8046 83.0069 37.0721 81.9302 37.1896C80.8549 37.3836 79.8552 37.4982 78.9309 37.5333C77.0054 37.6067 75.1507 37.3712 73.4439 36.824C71.7371 36.2768 70.1766 35.3415 68.9196 34.165C67.5856 32.9915 66.552 31.424 65.7449 29.6182C64.9377 27.8125 64.5866 25.6833 64.5358 23.1601C64.4989 21.325 64.7716 19.5546 65.3539 17.849C65.9362 16.1434 66.8313 14.6555 68.039 13.3852C69.1697 12.1178 70.6131 11.0681 72.2922 10.239C73.7464 9.72449 75.6643 9.26887 77.7439 9.18969ZM78.0133 14.9184C76.3959 14.98 75.1727 15.4857 74.2669 16.4384C73.3611 17.3911 72.8481 18.7115 72.5739 20.4054L82.9719 20.0095C82.9581 19.3213 82.8687 18.7126 82.7024 18.1068C82.536 17.5009 82.2172 16.9774 81.8213 16.4569C81.4269 16.0128 80.8785 15.5745 80.2562 15.2921C79.7109 15.0068 78.9376 14.8832 78.0133 14.9184Z" fill="#D8271C"/>
<path d="M106.831 8.37722C108.679 8.30685 110.38 8.54816 111.931 9.0247C113.482 9.50124 114.808 10.2924 115.908 11.3217C117.008 12.351 117.883 13.695 118.607 15.1977C119.255 16.7798 119.599 18.5265 119.639 20.5144C119.651 21.126 119.662 21.6612 119.592 22.0464C119.523 22.4316 119.452 22.7403 119.303 22.9756C119.153 23.2108 119.002 23.3696 118.696 23.4578C118.466 23.543 118.16 23.6312 117.775 23.6459L101.678 24.2587C101.956 26.5436 102.76 28.1962 103.936 29.2226C105.113 30.249 106.586 30.652 108.434 30.5817C109.435 30.5435 110.204 30.4378 110.968 30.1026C111.656 29.8469 112.268 29.594 112.801 29.2677C113.334 28.9414 113.868 28.6915 114.326 28.4445C114.783 28.1975 115.242 28.027 115.781 28.0065C116.475 27.9801 116.941 28.1919 117.336 28.636L119.783 31.5268C118.956 32.553 118.047 33.3527 117.058 34.0025C116.069 34.6522 115.077 35.1491 114.007 35.5724C112.936 35.9957 111.94 36.2632 110.863 36.3807C109.788 36.5747 108.788 36.6893 107.864 36.7245C105.939 36.7978 104.084 36.5623 102.3 36.0181C100.594 35.471 99.0333 34.5357 97.7764 33.3594C96.4425 32.1859 95.409 30.6185 94.6019 28.8129C93.7948 27.0073 93.3667 24.8812 93.3159 22.3582C93.279 20.5233 93.5516 18.7531 94.1339 17.0476C94.7162 15.3421 95.6112 13.8543 96.8188 12.5841C98.0265 11.3139 99.3928 10.2672 101.072 9.43815C102.834 8.91198 104.675 8.45933 106.831 8.37722ZM107.101 14.1055C105.483 14.1671 104.26 14.6727 103.354 15.6254C102.449 16.578 101.936 17.8983 101.661 19.592L112.059 19.1962C112.045 18.5081 111.956 17.8994 111.789 17.2936C111.623 16.6878 111.304 16.1643 110.908 15.6438C110.514 15.1997 109.966 14.7615 109.343 14.4792C108.798 14.1939 108.025 14.0703 107.101 14.1055Z" fill="#D8271C"/>
<path d="M148.675 29.3701C148.433 28.8441 148.038 28.3241 147.645 27.9568C147.176 27.5924 146.707 27.228 146.087 27.0223C144.923 26.6079 143.462 26.6636 142.317 27.1658C141.706 27.4184 141.252 27.8179 140.798 28.2174C140.344 28.6169 140.047 29.1633 139.827 29.7068C139.607 30.2503 139.466 30.8673 139.479 31.5548C139.493 32.2423 139.659 32.8475 139.901 33.3734C140.144 33.9757 140.538 34.4194 140.93 34.7867C141.401 35.2275 141.869 35.5154 142.489 35.7212C143.109 35.9269 143.728 36.0563 144.42 36.0299C145.112 36.0035 145.725 35.8273 146.259 35.5777C146.793 35.328 147.325 35.002 147.778 34.5261C148.231 34.1266 148.528 33.5801 148.747 32.9602C148.965 32.3404 149.107 31.7234 149.095 31.1123C149.082 30.5012 148.916 29.896 148.675 29.3701Z" fill="#D8271C"/>
<path d="M188.578 34.6463L180.962 34.9362L169.556 7.62866L176.48 7.36509C177.096 7.34167 177.56 7.47682 177.949 7.69128C178.34 7.98209 178.654 8.27584 178.816 8.6518L182.913 20.9529C183.241 21.9339 183.569 22.9149 183.896 23.8959C184.147 24.8799 184.396 25.7875 184.647 26.7715C184.858 25.7699 185.07 24.8448 185.281 23.8432C185.492 22.8417 185.857 21.8343 186.144 20.8299L189.895 8.23009C190.041 7.84241 190.264 7.4518 190.721 7.20514C191.099 6.88504 191.56 6.7911 192.098 6.7706L198.715 6.51875L188.578 34.6463Z" fill="#D8271C"/>
<path d="M135.655 29.5714C135.494 29.27 135.257 29.1253 135.099 28.9775C134.863 28.8328 134.551 28.7677 134.24 28.7795C134.007 28.7884 133.776 28.874 133.622 28.9567C133.469 29.0394 133.315 29.1221 133.161 29.2048C133.085 29.2845 132.93 29.2904 132.776 29.3731C132.622 29.4558 132.467 29.4617 132.234 29.4706C131.846 29.4853 131.611 29.4173 131.45 29.116C131.211 28.8176 131.127 28.5133 131.116 27.9757L130.874 15.9938L137.163 15.7552L137.038 9.53392L130.748 9.77252L130.607 2.78312L123.775 3.04234L123.776 3.11915C122.694 3.39081 121.938 4.41875 121.959 5.49404L122.429 28.7664C122.452 29.9185 122.629 30.9879 123.038 31.9717C123.446 32.9554 123.929 33.7826 124.642 34.4474C125.355 35.1121 126.22 35.6174 127.237 35.9631C128.254 36.3088 129.344 36.4212 130.664 36.3711C131.984 36.3211 133.378 36.1144 134.613 35.6833C135.925 35.2492 137.077 34.5905 138.073 33.861L138.455 33.539L135.655 29.5714Z" fill="#D8271C"/>
<path d="M167.565 28.6886C167.404 28.3872 167.168 28.2425 167.009 28.0947C166.773 27.95 166.461 27.8849 166.15 27.8967C165.918 27.9056 165.686 27.9912 165.532 28.0739C165.379 28.1566 165.225 28.2393 165.071 28.322C164.995 28.4017 164.84 28.4076 164.686 28.4903C164.532 28.573 164.377 28.5789 164.144 28.5878C163.756 28.6025 163.521 28.5345 163.36 28.2332C163.121 27.9348 163.037 27.6305 163.026 27.0929L162.784 15.111L169.073 14.8724L168.948 8.65111L162.659 8.88971L162.517 1.90031L155.685 2.15953L155.686 2.23634C154.604 2.508 153.848 3.53594 153.869 4.61123L154.339 27.8836C154.363 29.0357 154.54 30.1051 154.948 31.0889C155.356 32.0726 155.839 32.8998 156.552 33.5646C157.265 34.2293 158.13 34.7346 159.147 35.0803C160.164 35.4261 161.254 35.5384 162.574 35.4884C163.894 35.4383 165.288 35.2316 166.523 34.8005C167.835 34.3664 168.987 33.7077 169.983 32.9782L170.365 32.6562L167.565 28.6886Z" fill="#D8271C"/>
</svg>
